<?xml version="1.0" encoding="utf-8"?>
<!-- Generator: Adobe Illustrator 22.1.0, SVG Export Plug-In . SVG Version: 6.00 Build 0)  -->
<svg version="1.1" id="Layer_1" xmlns="http://www.w3.org/2000/svg" xmlns:xlink="http://www.w3.org/1999/xlink" x="0px" y="0px"
	 width="208.2px" height="139px" viewBox="0 0 208.2 139" style="enable-background:new 0 0 208.2 139;" xml:space="preserve">
<style type="text/css">
	.st0{stroke:#000000;stroke-width:0.25;}
</style>
<path d="M35.5,42.6c2.9-1.3,4.3-4.7,3-7.6c-1.3-2.9-4.7-4.3-7.6-3c-2.2,1-3.4,3-3.5,5.3c0,0.8,0.2,1.6,0.5,2.4
	C29.2,42.5,32.6,43.8,35.5,42.6z M38.8,89.6c-1.3-2.9-4.7-4.3-7.6-3c-2.2,1-3.5,3-3.5,5.2c0,0.8,0.2,1.6,0.5,2.3
	c1.2,2.9,4.6,4.2,7.6,3C38.7,95.8,40,92.5,38.8,89.6z M46.4,46.2c3.1,0.4,6-1.9,6.3-5.1c0-0.2,0-0.4,0-0.6c0-2.9-2.2-5.5-5.2-5.8
	c-3.2-0.3-6,1.9-6.3,5.1C41,43,43.3,45.8,46.4,46.2z M25.3,88.3c0-2.9-2.2-5.4-5.1-5.8c-3.2-0.3-6,1.9-6.3,5.1c-0.3,3.1,2,6,5.1,6.3
	c3.1,0.3,6-2,6.3-5.1C25.3,88.6,25.3,88.4,25.3,88.3z M53.9,55.1c2.6,1.8,6.2,1.2,8-1.4c0.7-1,1.1-2.2,1.1-3.3
	c0-1.8-0.8-3.6-2.5-4.7c-2.6-1.8-6.2-1.2-8,1.4C50.7,49.7,51.3,53.3,53.9,55.1z M15.5,78.1c0-1.8-0.8-3.6-2.4-4.7
	c-2.7-1.8-6.2-1.2-8,1.4c-1.8,2.6-1.2,6.2,1.4,8c2.6,1.8,6.2,1.2,8-1.4C15.1,80.4,15.5,79.2,15.5,78.1z M62.6,83.9
	c2.1-0.9,3.4-3.1,3.4-5.3c0-0.8-0.2-1.6-0.5-2.4c-1.3-2.9-4.7-4.2-7.6-2.8C55,74.7,53.7,78.1,55,81C56.3,83.9,59.7,85.2,62.6,83.9z
	 M57.9,87.5c-2.8,1.3-4.1,4.7-2.8,7.6c1.3,2.9,4.7,4.2,7.6,2.9c2.1-1,3.4-3.1,3.4-5.3c0-0.8-0.1-1.6-0.5-2.4
	C64.2,87.4,60.8,86.2,57.9,87.5z M57.2,101.1c-3,1-4.5,4.4-3.5,7.3c1.1,3,4.4,4.6,7.3,3.5c2.4-0.8,3.9-3.1,3.9-5.5
	c0-0.7-0.1-1.3-0.3-1.9C63.5,101.5,60.3,100,57.2,101.1z M8.1,69.9c2.1-1,3.4-3.1,3.4-5.3c0-0.8-0.2-1.6-0.5-2.4
	c-1.4-2.9-4.7-4.2-7.6-2.9c-2.9,1.3-4.1,4.7-2.9,7.6C1.8,69.9,5.2,71.2,8.1,69.9z M47.4,82.6c-1.8-0.1-3.7,0.6-4.9,2.2
	c-1.9,2.5-1.5,6.1,1,8.1c2.5,2,6.1,1.6,8.1-0.9c2-2.5,1.6-6.1-0.9-8C49.7,83.1,48.6,82.7,47.4,82.6z M8.8,57
	c3.2,0.3,6.1-1.9,6.4-5.1c0-0.2,0-0.4,0-0.6c0-2.9-2.2-5.4-5.1-5.8c-3.1-0.3-6,1.9-6.3,5.1C3.4,53.7,5.7,56.6,8.8,57z M56.8,114.4
	c-2.9-1.4-6.3-0.2-7.8,2.6c-0.4,0.8-0.6,1.6-0.6,2.5c0,2.1,1.2,4.2,3.2,5.2c2.9,1.4,6.3,0.2,7.7-2.7
	C60.8,119.3,59.7,115.8,56.8,114.4z M40.5,124.3c-1.6,1.1-2.5,2.9-2.5,4.7c0,1.2,0.3,2.3,1,3.3c1.8,2.6,5.4,3.2,8,1.5
	c2.6-1.8,3.3-5.4,1.6-8C46.7,123.2,43.1,122.5,40.5,124.3z M29.9,127.5c-3,0.3-5.2,2.7-5.2,5.7c0,0.2,0,0.4,0,0.5
	c0.3,3.2,3.1,5.5,6.3,5.2c3.1-0.3,5.5-3.1,5.2-6.2C35.9,129.5,33,127.2,29.9,127.5z M24.2,44.7c0.8-1.1,1.1-2.3,1.1-3.4
	c0-1.8-0.8-3.5-2.3-4.7c-2.5-1.9-6.2-1.3-8.1,1.2c-1.9,2.6-1.4,6.2,1.2,8C18.7,47.7,22.3,47.2,24.2,44.7z M176.7,87
	c-2.9-1.3-6.3,0.1-7.6,3c-1.3,3,0,6.3,3,7.6c2.9,1.2,6.3-0.1,7.6-3.1c0.3-0.7,0.5-1.4,0.5-2.2C180.2,90.1,178.9,88,176.7,87z
	 M178.1,32.5c-2.9-1.2-6.3,0.2-7.5,3.1c-1.2,3,0.1,6.3,3,7.6c3,1.2,6.3-0.2,7.6-3.1c0.3-0.7,0.4-1.4,0.4-2.2
	C181.6,35.6,180.2,33.5,178.1,32.5z M187.6,82.9c-3.2,0.4-5.4,3.3-5.1,6.4c0.4,3.2,3.2,5.4,6.4,5c3-0.3,5.1-2.8,5.1-5.7
	c0-0.2,0-0.5,0-0.7C193.6,84.8,190.7,82.5,187.6,82.9z M160.8,35.1c-3.2,0.4-5.4,3.3-5.1,6.4c0.4,3.2,3.2,5.4,6.4,5
	c2.9-0.3,5.1-2.8,5.1-5.7c0-0.2,0-0.5,0-0.7C166.8,36.9,164,34.7,160.8,35.1z M195.2,73.8c-2.6,1.9-3.2,5.5-1.3,8
	c1.9,2.6,5.4,3.2,8,1.3c1.6-1.1,2.4-2.9,2.4-4.7c0-1.2-0.3-2.4-1.1-3.5C201.4,72.6,197.7,72,195.2,73.8z M154.3,55.3
	c1.5-1.1,2.4-2.9,2.4-4.7c0-1.2-0.4-2.4-1.1-3.4c-1.9-2.5-5.4-3.1-8-1.3c-2.6,1.9-3.2,5.5-1.3,8C148.2,56.5,151.7,57.1,154.3,55.3z
	 M204.8,59.3c-2.9-1.3-6.3,0.1-7.5,3c-1.3,2.9,0.1,6.3,2.9,7.6c3,1.3,6.3,0,7.6-2.9c0.3-0.8,0.5-1.5,0.5-2.3
	C208.3,62.4,207,60.3,204.8,59.3z M204.5,45.2c-2.9-1.3-6.3,0.1-7.6,3c-1.3,2.9,0,6.3,2.9,7.6c2.9,1.3,6.3,0,7.6-2.9
	c0.3-0.8,0.5-1.5,0.5-2.3C208,48.3,206.7,46.1,204.5,45.2z M204.3,30.3c-2.9-1.2-6.3,0.1-7.5,3c-1.3,2.9,0.1,6.3,3,7.6
	c2.9,1.3,6.3,0,7.6-3c0.3-0.7,0.5-1.5,0.5-2.3C207.8,33.4,206.5,31.2,204.3,30.3z M203.6,16c-3-1-6.3,0.6-7.3,3.6
	c-1,3,0.6,6.3,3.6,7.3c3,1,6.3-0.5,7.3-3.6c0.2-0.6,0.3-1.2,0.3-1.9C207.6,19,206,16.8,203.6,16z M199.2,12.6c3,1.3,6.3,0,7.6-2.9
	c0.3-0.7,0.5-1.5,0.5-2.3c0-2.3-1.3-4.4-3.5-5.4c-2.9-1.2-6.3,0.1-7.5,3C195,7.9,196.4,11.3,199.2,12.6z M151.9,66.8
	c0.3-0.7,0.5-1.5,0.5-2.3c0-2.3-1.3-4.4-3.5-5.3c-2.9-1.2-6.3,0.1-7.5,3c-1.3,2.9,0,6.3,2.9,7.6C147.3,71.1,150.6,69.8,151.9,66.8z
	 M156.2,77.6c-0.4-3.2-3.3-5.4-6.5-5c-2.9,0.3-5.1,2.8-5.1,5.7c0,0.2,0,0.5,0,0.7c0.4,3.2,3.2,5.4,6.4,5.1
	C154.3,83.6,156.5,80.8,156.2,77.6z M157,83.7c-1.5,1.1-2.3,2.8-2.3,4.6c0,1.2,0.3,2.4,1.1,3.4c1.9,2.6,5.5,3.1,8,1.2
	c2.6-1.9,3.1-5.5,1.2-8.1C163.2,82.4,159.6,81.8,157,83.7z M193.1,46.6c0.6-0.5,1.1-1,1.5-1.6c1.2-2,1.1-4.5-0.3-6.4
	c-1.9-2.5-5.5-3-8.1-1.2c-2.6,2-3.1,5.5-1.2,8.1C186.9,48.1,190.5,48.6,193.1,46.6z M102.8,32.1c-2.3,0.9-3.6,3-3.6,5.3
	c0,0.7,0.1,1.4,0.4,2.1c1.1,2.9,4.5,4.4,7.4,3.3c2.9-1.2,4.4-4.5,3.3-7.4C109.2,32.4,105.8,31,102.8,32.1z M123.9,41.1
	c0.1-0.3,0.1-0.6,0.1-0.8c0-2.8-2.1-5.3-4.9-5.7c-3.2-0.4-6.1,1.7-6.6,4.9c-0.5,3.1,1.7,6,4.9,6.5C120.5,46.4,123.5,44.3,123.9,41.1
	z M131.3,54.2c0.8-1,1.2-2.3,1.2-3.5c0-1.7-0.8-3.5-2.3-4.6c-2.6-1.9-6.1-1.5-8.1,1.1c-1.9,2.5-1.4,6.1,1.1,8.1
	C125.8,57.2,129.4,56.7,131.3,54.2z M127.1,58.6c-2.9,1.2-4.4,4.6-3.2,7.5c1.2,2.9,4.6,4.4,7.5,3.2c2.3-0.9,3.6-3.1,3.6-5.4
	c0-0.7-0.1-1.5-0.4-2.2C133.4,58.8,130.1,57.4,127.1,58.6z M127,72.6c-2.9,1.3-4.2,4.7-3,7.6c1.3,2.9,4.7,4.2,7.6,3
	c2.2-0.9,3.5-3.1,3.5-5.3c0-0.8-0.2-1.6-0.5-2.3C133.3,72.6,130,71.3,127,72.6z M126.8,86.8c-2.9,1.3-4.2,4.7-2.9,7.6
	c1.3,2.9,4.7,4.2,7.5,3c2.2-0.9,3.5-3.1,3.5-5.3c0-0.8-0.1-1.5-0.5-2.3C133.1,86.8,129.7,85.5,126.8,86.8z M77.4,72.6
	c-2.9,1.3-4.1,4.7-2.9,7.6c1.3,2.9,4.7,4.2,7.6,2.9c2.1-1,3.4-3.1,3.4-5.3c0-0.8-0.2-1.6-0.5-2.4C83.7,72.5,80.3,71.3,77.4,72.6z
	 M77.3,87c-2.9,1.3-4.1,4.7-2.9,7.6c1.3,2.9,4.7,4.2,7.6,2.9c2.1-1,3.4-3.1,3.4-5.3c0-0.8-0.2-1.6-0.5-2.4
	C83.6,87,80.3,85.7,77.3,87z M77.6,58.1c-2.9,1.2-4.3,4.6-3.1,7.5c1.2,2.9,4.5,4.4,7.4,3.2c2.2-0.9,3.6-3.1,3.6-5.4
	c0-0.7-0.1-1.4-0.4-2.1C83.9,58.3,80.6,56.9,77.6,58.1z M77.5,29.4c-2.9,1.3-4.1,4.7-2.9,7.6c1.3,2.9,4.7,4.2,7.6,2.9
	c2.1-0.9,3.4-3.1,3.4-5.3c0-0.8-0.2-1.6-0.5-2.4C83.8,29.3,80.4,28,77.5,29.4z M77.4,43.8c-2.9,1.3-4.1,4.7-2.9,7.6
	c1.3,2.9,4.7,4.2,7.6,2.9c2.1-1,3.4-3.1,3.4-5.3c0-0.8-0.2-1.6-0.5-2.3C83.8,43.7,80.4,42.5,77.4,43.8z M77.7,14.9
	c-2.9,1.2-4.3,4.5-3.1,7.5c1.2,2.9,4.5,4.4,7.4,3.2c2.3-0.9,3.6-3.1,3.6-5.4c0-0.7-0.1-1.4-0.4-2.1C84,15,80.7,13.6,77.7,14.9z
	 M77.8,0.4c-2.9,1.2-4.3,4.5-3.1,7.5c1.2,2.9,4.5,4.4,7.5,3.2c2.3-0.9,3.6-3.1,3.6-5.4c0-0.7-0.1-1.4-0.4-2.1
	C84.1,0.6,80.8-0.8,77.8,0.4z M87.5,38.3c-2,2.4-1.6,6.1,0.8,8.1c2.5,2,6.1,1.6,8.1-0.8c0.9-1.1,1.3-2.3,1.3-3.6
	c0-1.7-0.7-3.3-2.2-4.5C93.1,35.4,89.5,35.8,87.5,38.3z M58.4,58.6c-2.9,1.3-4.1,4.7-2.8,7.6c1.3,2.9,4.7,4.2,7.6,2.9
	c2.2-0.9,3.4-3.1,3.4-5.3c0-0.8-0.2-1.6-0.5-2.4C64.7,58.5,61.3,57.2,58.4,58.6z"/>
<g>
	<path class="st0" d="M83.4,122.8c-0.1,0.5-0.3,1-0.6,1.4c-0.3,0.4-0.6,0.7-1.1,1c-0.4,0.3-0.8,0.5-1.3,0.6c-0.5,0.1-1,0.2-1.4,0.2
		c-0.8,0-1.5-0.1-2.1-0.4c-0.6-0.3-1.1-0.7-1.5-1.2c-0.4-0.5-0.7-1.1-0.9-1.7c-0.2-0.7-0.3-1.3-0.3-2.1c0-0.8,0.1-1.5,0.3-2.1
		c0.2-0.7,0.5-1.2,0.9-1.8c0.4-0.5,0.9-0.9,1.5-1.2c0.6-0.3,1.3-0.4,2.1-0.4c0.5,0,1,0.1,1.5,0.3c0.5,0.2,0.9,0.4,1.3,0.7
		c0.4,0.3,0.7,0.6,0.9,1c0.3,0.4,0.4,0.8,0.6,1.3h0v-3h0.4v10.9c0,1.5-0.4,2.7-1.2,3.4c-0.8,0.7-2,1.1-3.5,1.1
		c-0.6,0-1.1-0.1-1.6-0.2c-0.5-0.1-1-0.3-1.4-0.6c-0.4-0.3-0.7-0.7-0.9-1.1c-0.2-0.4-0.4-1-0.4-1.6h0.4c0,0.6,0.1,1,0.3,1.4
		c0.2,0.4,0.5,0.7,0.8,1c0.3,0.2,0.8,0.4,1.2,0.5c0.5,0.1,0.9,0.2,1.4,0.2c1.4,0,2.4-0.3,3.2-1s1.1-1.7,1.1-3.1L83.4,122.8
		L83.4,122.8z M83.4,120.6c0-0.6-0.1-1.3-0.3-1.9c-0.2-0.6-0.5-1.2-0.8-1.6c-0.4-0.5-0.8-0.9-1.3-1.1c-0.5-0.3-1.2-0.4-1.9-0.4
		c-0.7,0-1.4,0.1-1.9,0.4c-0.5,0.3-1,0.6-1.4,1.1c-0.4,0.5-0.7,1-0.8,1.6c-0.2,0.6-0.3,1.3-0.3,1.9c0,0.7,0.1,1.4,0.3,1.9
		c0.2,0.6,0.5,1.1,0.8,1.6s0.8,0.8,1.3,1.1c0.5,0.3,1.1,0.4,1.8,0.4c0.7,0,1.4-0.1,1.9-0.4c0.6-0.3,1-0.6,1.4-1.1
		c0.4-0.4,0.7-1,0.9-1.6C83.3,121.9,83.4,121.3,83.4,120.6z"/>
	<path class="st0" d="M85.6,121c0-0.8,0.1-1.5,0.3-2.2c0.2-0.7,0.5-1.3,1-1.9c0.4-0.5,1-1,1.6-1.3c0.6-0.3,1.4-0.5,2.2-0.5
		c0.8,0,1.5,0.2,2.2,0.5c0.6,0.3,1.2,0.8,1.6,1.3c0.4,0.5,0.8,1.2,1,1.9c0.2,0.7,0.3,1.5,0.3,2.2c0,0.8-0.1,1.5-0.3,2.2
		c-0.2,0.7-0.5,1.3-1,1.9c-0.4,0.5-1,1-1.6,1.3c-0.6,0.3-1.4,0.5-2.2,0.5c-0.8,0-1.5-0.2-2.2-0.5c-0.6-0.3-1.2-0.8-1.6-1.3
		c-0.4-0.5-0.8-1.2-1-1.9C85.7,122.5,85.6,121.8,85.6,121z M86,121c0,0.7,0.1,1.4,0.3,2.1c0.2,0.7,0.5,1.2,0.9,1.7
		c0.4,0.5,0.9,0.9,1.5,1.2c0.6,0.3,1.2,0.4,2,0.4c0.7,0,1.4-0.1,2-0.4c0.6-0.3,1.1-0.7,1.5-1.2c0.4-0.5,0.7-1.1,0.9-1.7
		c0.2-0.7,0.3-1.3,0.3-2.1c0-0.7-0.1-1.4-0.3-2c-0.2-0.7-0.5-1.2-0.9-1.7c-0.4-0.5-0.9-0.9-1.5-1.2c-0.6-0.3-1.2-0.5-2-0.5
		c-0.8,0-1.4,0.2-2,0.5c-0.6,0.3-1.1,0.7-1.5,1.2c-0.4,0.5-0.7,1.1-0.9,1.7C86.1,119.6,86,120.3,86,121z"/>
	<path class="st0" d="M97,121c0-0.8,0.1-1.5,0.3-2.2c0.2-0.7,0.5-1.3,1-1.9c0.4-0.5,1-1,1.6-1.3c0.6-0.3,1.4-0.5,2.2-0.5
		c0.8,0,1.5,0.2,2.2,0.5c0.6,0.3,1.2,0.8,1.6,1.3c0.4,0.5,0.8,1.2,1,1.9c0.2,0.7,0.3,1.5,0.3,2.2c0,0.8-0.1,1.5-0.3,2.2
		c-0.2,0.7-0.5,1.3-1,1.9c-0.4,0.5-1,1-1.6,1.3c-0.6,0.3-1.4,0.5-2.2,0.5c-0.8,0-1.5-0.2-2.2-0.5c-0.6-0.3-1.2-0.8-1.6-1.3
		c-0.4-0.5-0.8-1.2-1-1.9C97.1,122.5,97,121.8,97,121z M97.4,121c0,0.7,0.1,1.4,0.3,2.1c0.2,0.7,0.5,1.2,0.9,1.7
		c0.4,0.5,0.9,0.9,1.5,1.2c0.6,0.3,1.2,0.4,2,0.4c0.7,0,1.4-0.1,2-0.4c0.6-0.3,1.1-0.7,1.5-1.2c0.4-0.5,0.7-1.1,0.9-1.7
		c0.2-0.7,0.3-1.3,0.3-2.1c0-0.7-0.1-1.4-0.3-2c-0.2-0.7-0.5-1.2-0.9-1.7c-0.4-0.5-0.9-0.9-1.5-1.2c-0.6-0.3-1.2-0.5-2-0.5
		c-0.8,0-1.4,0.2-2,0.5c-0.6,0.3-1.1,0.7-1.5,1.2c-0.4,0.5-0.7,1.1-0.9,1.7C97.5,119.6,97.4,120.3,97.4,121z"/>
	<path class="st0" d="M118.1,111v15.6h-0.4v-3.2h0c-0.3,1-0.8,1.8-1.6,2.5c-0.8,0.6-1.8,0.9-2.9,0.9c-0.7,0-1.4-0.1-2-0.4
		c-0.6-0.3-1.1-0.7-1.5-1.2c-0.4-0.5-0.7-1.1-1-1.9c-0.2-0.7-0.3-1.5-0.3-2.3c0-0.8,0.1-1.5,0.3-2.3c0.2-0.7,0.5-1.3,0.9-1.9
		c0.4-0.5,0.9-1,1.5-1.3c0.6-0.3,1.3-0.5,2.1-0.5c1.2,0,2.2,0.3,3,0.9c0.8,0.6,1.3,1.5,1.6,2.5h0V111L118.1,111L118.1,111z
		 M117.7,121c0-1.8-0.4-3.1-1.2-4.1c-0.8-0.9-1.9-1.4-3.3-1.4c-0.8,0-1.4,0.2-2,0.5c-0.5,0.3-1,0.7-1.3,1.3
		c-0.4,0.5-0.6,1.1-0.8,1.8c-0.2,0.6-0.3,1.3-0.3,2c0,0.7,0.1,1.4,0.3,2.1c0.2,0.6,0.5,1.2,0.8,1.7s0.8,0.9,1.4,1.2
		c0.5,0.3,1.2,0.4,1.9,0.4c0.7,0,1.4-0.1,1.9-0.4c0.6-0.3,1-0.7,1.4-1.2c0.4-0.5,0.7-1.1,0.9-1.7C117.6,122.4,117.7,121.7,117.7,121
		z"/>
	<path class="st0" d="M126.1,111v7.2h0c0.1-0.4,0.3-0.8,0.5-1.2c0.2-0.4,0.5-0.7,0.9-1c0.3-0.3,0.7-0.5,1.2-0.6
		c0.5-0.2,1-0.2,1.5-0.2c0.6,0,1.1,0.1,1.6,0.3c0.5,0.2,0.9,0.4,1.3,0.8c0.4,0.3,0.6,0.8,0.8,1.3c0.2,0.5,0.3,1.1,0.3,1.7v7.5h-0.4
		v-7.4c0-0.7-0.1-1.2-0.3-1.7c-0.2-0.5-0.4-0.8-0.8-1.1c-0.3-0.3-0.7-0.5-1.1-0.7c-0.4-0.1-0.9-0.2-1.4-0.2c-0.7,0-1.3,0.1-1.8,0.4
		c-0.5,0.3-0.9,0.6-1.3,1c-0.3,0.4-0.6,0.9-0.8,1.5c-0.2,0.6-0.3,1.2-0.3,1.8v6.4h-0.4V111L126.1,111L126.1,111z"/>
	<path class="st0" d="M145.9,115.6v11h-0.4v-3.2h0c-0.3,1-0.8,1.8-1.6,2.5c-0.8,0.6-1.7,0.9-2.9,0.9c-0.7,0-1.4-0.1-2-0.4
		c-0.6-0.3-1.1-0.7-1.5-1.2c-0.4-0.5-0.7-1.1-1-1.9c-0.2-0.7-0.3-1.5-0.3-2.3c0-0.8,0.1-1.5,0.3-2.3c0.2-0.7,0.5-1.3,0.9-1.9
		c0.4-0.5,0.9-1,1.5-1.3c0.6-0.3,1.3-0.5,2.1-0.5c1.2,0,2.2,0.3,3,0.9c0.8,0.6,1.3,1.5,1.6,2.5h0v-2.9L145.9,115.6L145.9,115.6z
		 M145.4,121c0-1.8-0.4-3.1-1.2-4.1c-0.8-0.9-1.9-1.4-3.3-1.4c-0.8,0-1.4,0.2-2,0.5c-0.6,0.3-1,0.7-1.3,1.3
		c-0.3,0.5-0.6,1.1-0.8,1.8c-0.2,0.6-0.3,1.3-0.3,2c0,0.7,0.1,1.4,0.3,2.1c0.2,0.6,0.5,1.2,0.8,1.7c0.4,0.5,0.8,0.9,1.4,1.2
		c0.5,0.3,1.2,0.4,1.9,0.4c0.7,0,1.4-0.1,1.9-0.4c0.6-0.3,1-0.7,1.4-1.2c0.4-0.5,0.7-1.1,0.9-1.7C145.3,122.4,145.4,121.7,145.4,121
		z"/>
	<path class="st0" d="M148.9,113.2V111h0.4v2.2H148.9z M148.9,126.6v-11.3h0.4v11.3H148.9z"/>
	<path class="st0" d="M152.7,126.6v-11.3h0.4v2.8h0c0.1-0.4,0.3-0.8,0.5-1.2c0.2-0.4,0.5-0.7,0.9-1c0.4-0.3,0.8-0.5,1.3-0.7
		c0.5-0.2,1.1-0.2,1.8-0.2v0.4c-0.8,0-1.4,0.1-2,0.3c-0.6,0.3-1,0.6-1.4,1.1c-0.4,0.4-0.6,1-0.8,1.5c-0.2,0.6-0.3,1.2-0.3,1.8v6.4
		L152.7,126.6L152.7,126.6z"/>
	<path class="st0" d="M172.6,111v15.6h-0.4v-3.2h0c-0.3,1-0.8,1.8-1.6,2.5c-0.8,0.6-1.7,0.9-2.9,0.9c-0.7,0-1.4-0.1-2-0.4
		c-0.6-0.3-1.1-0.7-1.5-1.2c-0.4-0.5-0.7-1.1-1-1.9c-0.2-0.7-0.3-1.5-0.3-2.3c0-0.8,0.1-1.5,0.3-2.3c0.2-0.7,0.5-1.3,0.9-1.9
		c0.4-0.5,0.9-1,1.5-1.3c0.6-0.3,1.3-0.5,2.1-0.5c1.2,0,2.2,0.3,3,0.9c0.8,0.6,1.3,1.5,1.6,2.5h0V111L172.6,111L172.6,111z
		 M172.1,121c0-1.8-0.4-3.1-1.2-4.1c-0.8-0.9-1.9-1.4-3.3-1.4c-0.8,0-1.4,0.2-2,0.5c-0.5,0.3-1,0.7-1.3,1.3
		c-0.4,0.5-0.6,1.1-0.8,1.8c-0.2,0.6-0.2,1.3-0.2,2c0,0.7,0.1,1.4,0.3,2.1c0.2,0.6,0.4,1.2,0.8,1.7c0.4,0.5,0.8,0.9,1.4,1.2
		c0.5,0.3,1.2,0.4,1.9,0.4c0.7,0,1.4-0.1,1.9-0.4c0.6-0.3,1-0.7,1.4-1.2c0.4-0.5,0.7-1.1,0.9-1.7C172,122.4,172.1,121.7,172.1,121z"
		/>
	<path class="st0" d="M184.3,115.6v11h-0.4v-3.2h0c-0.3,1-0.8,1.8-1.6,2.5c-0.8,0.6-1.7,0.9-2.9,0.9c-0.7,0-1.4-0.1-2-0.4
		c-0.6-0.3-1.1-0.7-1.5-1.2c-0.4-0.5-0.7-1.1-1-1.9c-0.2-0.7-0.3-1.5-0.3-2.3c0-0.8,0.1-1.5,0.3-2.3c0.2-0.7,0.5-1.3,0.9-1.9
		c0.4-0.5,0.9-1,1.5-1.3c0.6-0.3,1.3-0.5,2.1-0.5c1.2,0,2.2,0.3,3,0.9c0.8,0.6,1.3,1.5,1.6,2.5h0v-2.9L184.3,115.6L184.3,115.6z
		 M183.9,121c0-1.8-0.4-3.1-1.2-4.1c-0.8-0.9-1.9-1.4-3.3-1.4c-0.8,0-1.4,0.2-2,0.5c-0.5,0.3-1,0.7-1.3,1.3
		c-0.4,0.5-0.6,1.1-0.8,1.8c-0.2,0.6-0.2,1.3-0.2,2c0,0.7,0.1,1.4,0.3,2.1c0.2,0.6,0.5,1.2,0.8,1.7s0.8,0.9,1.4,1.2
		c0.5,0.3,1.2,0.4,1.9,0.4c0.7,0,1.4-0.1,1.9-0.4c0.6-0.3,1.1-0.7,1.4-1.2c0.4-0.5,0.7-1.1,0.9-1.7
		C183.8,122.4,183.9,121.7,183.9,121z"/>
	<path class="st0" d="M194.9,115.4l-5.2,13.5c-0.1,0.4-0.3,0.7-0.5,0.9c-0.2,0.2-0.4,0.4-0.7,0.5c-0.3,0.1-0.5,0.2-0.8,0.2
		c-0.3,0-0.6,0-0.9,0V130c0.4,0,0.7,0,1,0c0.3,0,0.5-0.1,0.7-0.2c0.2-0.1,0.4-0.2,0.5-0.4c0.1-0.2,0.3-0.5,0.4-0.8l0.8-2.1
		l-4.7-11.2h0.5l4.5,10.7l4-10.7L194.9,115.4L194.9,115.4z"/>
</g>
</svg>
