<?xml version="1.0" encoding="UTF-8" standalone="no"?>
<svg
   xmlns:dc="http://purl.org/dc/elements/1.1/"
   xmlns:cc="http://creativecommons.org/ns#"
   xmlns:rdf="http://www.w3.org/1999/02/22-rdf-syntax-ns#"
   xmlns:svg="http://www.w3.org/2000/svg"
   xmlns="http://www.w3.org/2000/svg"
   xmlns:sodipodi="http://sodipodi.sourceforge.net/DTD/sodipodi-0.dtd"
   xmlns:inkscape="http://www.inkscape.org/namespaces/inkscape"
   width="350"
   height="80"
   viewBox="0 0 612 792"
   version="1.0"
   id="svg2435"
   sodipodi:version="0.32"
   inkscape:version="0.46"
   sodipodi:docname="Yves_Saint_Laurent_Logo.svg"
   inkscape:output_extension="org.inkscape.output.svg.inkscape">
  <metadata
     id="metadata2443">
    <rdf:RDF>
      <cc:Work
         rdf:about="">
        <dc:format>image/svg+xml</dc:format>
        <dc:type
           rdf:resource="http://purl.org/dc/dcmitype/StillImage" />
      </cc:Work>
    </rdf:RDF>
  </metadata>
  <defs
     id="defs2441">
    <inkscape:perspective
       sodipodi:type="inkscape:persp3d"
       inkscape:vp_x="0 : 495 : 1"
       inkscape:vp_y="0 : 1000 : 0"
       inkscape:vp_z="765 : 495 : 1"
       inkscape:persp3d-origin="382.5 : 330 : 1"
       id="perspective2445" />
  </defs>
  <sodipodi:namedview
     inkscape:window-height="753"
     inkscape:window-width="913"
     inkscape:pageshadow="2"
     inkscape:pageopacity="0.0"
     guidetolerance="10.0"
     gridtolerance="10.0"
     objecttolerance="10.0"
     borderopacity="1.0"
     bordercolor="#666666"
     pagecolor="#ffffff"
     id="base"
     showgrid="false"
     inkscape:zoom="1.32"
     inkscape:cx="193.19286"
     inkscape:cy="109.7512"
     inkscape:window-x="302"
     inkscape:window-y="95"
     inkscape:current-layer="svg2435" />
  <g
     id="surface0"
     transform="matrix(16.484276,0,0,19.273328,-4499.1021,-1890.4643)">
    <path
       style="fill:#000000;fill-opacity:1;fill-rule:nonzero;stroke:none"
       d="M 310.34375,118.90625 L 314.53125,118.90625 L 312.96875,113.08594 L 310.34375,118.90625 M 303.82812,128.75391 C 304.03516,128.54297 304.48828,127.89063 304.71094,127.51172 L 314.42187,108.4375 L 318.85547,127.20313 C 318.85547,127.20313 319.38281,128.57422 319.64063,128.75391 C 319.31641,128.75391 317.75,128.75391 317.32031,128.75391 C 317.16016,128.21484 314.8125,119.90234 314.8125,119.90234 L 309.85938,119.90234 C 309.85938,119.90234 305.94141,128.51172 305.83203,128.75391 C 305.50781,128.75391 303.9375,128.75391 303.82812,128.75391 z M 323.09766,123.3125 C 323.125,129.99219 331.07031,130.21094 331.08594,122.93359 L 331.09766,109.54297 L 333.30859,109.54688 C 332.75781,109.98828 332.55469,111.99219 332.44531,113.63672 C 332.41016,114.20313 332.01562,122.55469 331.96875,123.375 C 331.36719,132.33984 321.42969,131.03906 320.96875,124.14453 C 320.91797,123.39063 320.75391,111.88672 320.69922,111.48047 C 320.64453,110.53906 320.42969,109.75781 320.02734,109.54297 C 320.32031,109.54297 323.07031,109.54297 323.07031,109.54297 L 323.09766,123.3125 M 335.30469,109.59766 C 352.05859,107.14453 347.89844,118.64844 342.08984,119.75391 C 342.08984,119.75391 349.12109,128.375 349.39062,128.75391 C 349.39062,128.69531 349.19141,111.50781 349.19141,111.50781 C 349.14844,110.12109 348.55469,109.54297 348.55469,109.54297 L 358.59375,109.54297 L 358.59375,111.50781 C 358.59375,111.50781 356.46484,110.46094 351.76562,110.43359 L 351.57422,118.82422 L 358.59375,118.82422 L 358.59375,119.98438 L 351.57422,119.98438 L 351.57422,127.62109 C 351.57422,128.22656 352.08594,128.18359 352.46484,128.18359 C 357.04688,128.18359 359.90234,127.16016 359.90234,127.16016 L 359.08984,128.98438 C 359.08984,128.98438 350.28125,128.99609 349.67578,128.98438 C 349.95703,129.45312 352.30469,131.96094 353.83594,132.90234 C 353.08203,132.60547 349.92969,131.47266 348.77344,130.21094 C 348.39844,129.80078 339.94922,120.88281 339.32812,120.15625 C 347.9375,118.58203 345.02734,108.49219 338.53516,110.19141 L 337.61719,128.75391 L 335.00391,128.75391 C 335.19922,128.47266 335.36328,127.85156 335.4375,127.20703 L 335.89453,111.64453 C 335.88281,110.54688 335.61328,109.98047 335.30469,109.59766 M 268.08984,128.78125 C 268.08984,128.77734 267.78125,111.16016 267.78125,111.16016 C 267.78125,110.53125 267.41406,109.82812 267.05078,109.46484 L 270.19141,109.46484 L 269.99219,127.66406 C 269.96094,127.91016 270.30078,128.71875 270.44922,128.78125 C 270.41016,128.77734 268.08984,128.78125 268.08984,128.78125 M 272.55078,109.46484 L 275.90234,109.46484 L 288.13281,126.32812 L 288.13281,109.46484 L 302.98047,109.46484 L 304.21875,103.82031 C 304.35156,103.06641 304.35156,102.60547 304,102.16406 L 307.48047,102.16406 L 300.09375,133.11719 C 299.91016,133.82813 299.96094,134.44922 301.15234,134.46875 C 304.8125,134.51953 312.35938,133.85938 315.37109,132.82422 L 313.97266,135.27344 L 297.05469,135.27344 C 297.32031,134.92578 297.56641,134.27734 297.80859,133.39062 L 302.59375,111.17578 C 300.77734,110.50781 298.55859,110.46484 296.51562,110.46875 L 295.92969,127.28516 C 295.92578,127.91016 296.02734,128.37109 296.14063,128.78125 C 296.12891,128.78125 293.56641,128.78125 293.55469,128.78125 C 293.73828,128.29687 293.79687,127.89063 293.82031,127.19922 L 293.68359,110.46094 L 290.48047,110.46094 C 289.42969,110.48828 289.64453,111.42969 289.61719,111.83594 L 288.78125,130.34766 L 274.79297,112.43359 L 274.80078,128.78125 C 274.80078,128.78125 272.92578,128.78125 272.95312,128.78125 C 273.12891,128.51562 273.39062,127.67187 273.42578,127.00391 L 273.94922,111.26953 L 272.55078,109.46484 M 389.51172,109.65234 L 389.51172,111.02734 C 387.65234,110.46875 386.34766,110.46875 384.26562,110.46875 C 384.26562,110.46875 383.64453,127.66016 383.64453,127.66016 C 383.62109,128.27344 383.68359,128.51562 383.80859,128.96484 C 383.80859,128.96484 381.33594,128.96094 381.33594,128.95703 C 381.47656,128.49219 381.55469,128.31641 381.59766,127.64844 L 381.48437,110.46875 C 381.48437,110.46875 378.00781,110.46875 377.99609,110.46875 C 376.90625,110.46875 376.90625,111.59375 376.90625,111.99609 C 376.90625,111.99609 376.23828,129.85547 376.21094,130.52734 C 375.96875,130.17578 362.22266,112.61719 362.22266,112.61719 L 362.23047,128.96484 C 362.23047,128.96484 360.95312,128.96484 360.56641,128.96484 C 360.80469,128.43359 360.82031,127.89063 360.85547,127.18359 C 360.85547,127.18359 361.38281,111.9375 361.38281,111.44922 C 361.23047,111.23438 360.15625,109.85937 359.98047,109.64844 C 360.50781,109.64844 363.33594,109.64844 363.33594,109.64844 L 375.56641,126.51172 L 375.56641,109.65234 L 389.51172,109.65234 M 257.60938,118.8125 L 261.60156,118.8125 L 260.17188,113.31641 L 257.60938,118.8125 M 257.11328,120.01953 L 252.07812,130.72266 C 248.67187,137.69141 240.59766,137.25781 235.15625,132.32031 L 236.01953,129.57031 C 243.24609,141.25391 255.34375,132.07422 248.92969,123.94531 L 239.52344,112.8125 C 233.11328,105.41406 229.25391,113.24609 232.8125,116.09766 L 238.09375,120.08594 C 241.97656,122.83984 240.67969,128.69531 235.65625,129.21875 C 233.33984,129.46094 230.6875,128.44141 229.09766,127.34766 L 228.66406,128.82813 L 218.37109,128.82813 C 218.55469,128.49219 218.75391,127.875 218.75,127.39844 L 218.72266,110.33984 C 218.73437,110.02734 218.53125,110.00781 218.41406,110.26563 L 209.35156,129.67969 L 205.35156,112.08594 C 205.21875,111.65234 204.94531,112.05859 204.94531,112.05859 C 204.27344,112.98828 201.3125,117.13672 200.78516,117.84766 C 200.39062,118.375 200.23047,118.72656 199.93359,119.58984 C 199.78125,120.01953 196.53516,133.07422 196.39062,133.58594 C 196.25781,134.05078 196.44141,134.99219 196.6875,135.22656 L 193.48047,135.22656 C 193.59375,135.13672 194.11328,134.52734 194.23828,134.05078 L 196.78906,120.86719 C 197.35938,118.27344 196.63281,115.64063 196.63281,115.64063 C 195.05469,106.42188 194.71094,102.44531 193.88672,101.82031 L 196.55469,101.82031 C 196.63281,102.30469 199.70312,116.82422 199.89453,117.52734 C 199.70312,117.82422 210.10156,101.94922 210.10156,101.94922 L 212.79687,101.94922 C 212.79687,101.94922 211.44922,103.21875 211.21094,103.54688 C 211,103.82031 207.76172,108.24609 207.35547,108.79688 L 210.45312,125.47266 L 217.16016,109.41797 L 228.31641,109.41797 L 228.31641,111.23438 C 227.09375,110.62891 222.85156,109.88672 221.17578,110.10547 L 221.01562,118.19922 C 221.02344,118.64453 221.01562,118.67969 221.41797,118.67969 L 228.32813,118.67187 L 228.32813,119.78906 L 220.93359,119.78906 L 220.70312,127.61719 C 220.70312,128.15625 221.09375,128.21094 221.43359,128.22266 C 224.32422,128.33594 227.05078,127.95313 229.0625,127.07422 L 229.53906,125.32422 C 231.76562,128.04687 233.56641,129.01953 235.91016,128.32813 C 238.16797,127.67187 240.32813,124.58984 236.17969,121.70313 L 232.14453,118.84766 C 226.55469,114.625 231.27734,105.49609 239.19922,110.06641 C 239.17187,102.11719 249.29687,98.148438 256.44141,104.21875 L 255.74219,106.83203 C 249.42969,96.585938 237.87109,105.01172 243.21484,112.32422 L 250.78125,122.21484 C 252.48047,124.34766 252.76953,125.88672 252.76953,125.88672 L 261.67969,108.84375 L 266.10938,127.37109 C 266.26953,127.95313 266.59375,128.55469 266.82422,128.78125 C 266.82031,128.78125 264.28125,128.78125 264.27734,128.78125 C 264.28125,128.78125 261.92187,120.02344 261.92187,120.02344 L 257.11328,120.01953"
       id="path2438" />
  </g>
</svg>
